<?xml version="1.0"?>
<svg xmlns="http://www.w3.org/2000/svg" xmlns:xlink="http://www.w3.org/1999/xlink" xmlns:svgjs="http://svgjs.com/svgjs" version="1.1" width="512" height="512" x="0" y="0" viewBox="0 0 512 512" style="enable-background:new 0 0 512 512" xml:space="preserve" class=""><circle r="256" cx="256" cy="256" fill="#000000" shape="circle" transform="matrix(1,0,0,1,0,0)"/><g transform="matrix(0.68,0,0,0.68,81.90430725097687,81.94102905273468)">
  <g xmlns="http://www.w3.org/2000/svg">
    <g>
      <path d="m365.5,191.5v-106.7c0-7.2-3.8-13.8-9.9-17.5l-89-53.4c-6.5-3.9-14.5-3.9-21,0l-89.1,53.4c-6.2,3.7-9.9,10.3-9.9,17.5v106.7c0,7.2 3.8,13.8 9.9,17.5l89.1,53.4c9.4,5.4 17.2,2.5 21,0l89-53.4c6.1-3.7 9.9-10.3 9.9-17.5z" fill="#0070ff" data-original="#000000" style="" class=""/>
      <path d="m220,303l-89-53.4c-6.5-3.9-14.5-3.9-21,0l-89.1,53.4c-6.2,3.7-9.9,10.3-9.9,17.5v106.7c0,7.2 3.8,13.8 9.9,17.5l89.1,53.4c9.4,5.4 17.2,2.5 21,0l89-53.4c6.2-3.7 9.9-10.3 9.9-17.5v-106.7c0-7.2-3.7-13.8-9.9-17.5z" fill="#0070ff" data-original="#000000" style="" class=""/>
      <path d="m491.1,302.9l-89-53.4c-6.5-3.9-14.5-3.9-21,0l-89.1,53.4c-6.2,3.7-9.9,10.3-9.9,17.5v106.7c0,7.2 3.8,13.8 9.9,17.5l89,53.4c9.4,5.4 17.2,2.5 21,0l89-53.4c6.2-3.7 9.9-10.3 9.9-17.5v-106.7c0.1-7.2-3.7-13.8-9.8-17.5z" fill="#0070ff" data-original="#000000" style="" class=""/>
    </g>
  </g>
</g></svg>
